<?xml version="1.0" encoding="UTF-8"?><svg id="Layer_1" xmlns="http://www.w3.org/2000/svg" viewBox="0 0 826.74 260.63"><defs><style>.cls-1{fill:#fff;}</style></defs><path class="cls-1" d="M2.19,105.59V7.19h46.52c18.33,0,29.89,12.83,29.89,31.44s-11.56,31.44-29.89,31.44h-25.09v35.53H2.19ZM23.62,51.46h22.56c6.34,0,10.29-3.38,10.29-9.73v-6.2c0-6.34-3.95-9.73-10.29-9.73h-22.56v25.66Z"/><path class="cls-1" d="M86.07,68.51c0-23.4,12.41-38.63,34.68-38.63,24.53,0,34.4,17.76,34.4,37.78v6.2h-47.51v1.13c0,9.73,5.22,15.93,16.35,15.93,8.74,0,13.53-4.09,18.19-8.88l10.43,12.97c-6.63,7.61-17.48,12.27-31.01,12.27-22.7,0-35.53-15.08-35.53-38.77ZM107.64,60.48v1.13h25.94v-1.27c0-9.02-4.09-15.08-12.41-15.08s-13.53,6.06-13.53,15.23Z"/><path class="cls-1" d="M169.95,105.59V31.58h20.86v16.07h.71c1.69-8.18,7.33-16.07,18.89-16.07h3.67v19.45h-5.22c-12.12,0-18.04,2.68-18.04,11.28v43.28h-20.86Z"/><path class="cls-1" d="M253.41,105.59c-14.38,0-21.99-7.47-21.99-21.57v-36.23h-10.43v-16.21h5.22c5.64,0,7.33-2.82,7.33-7.9v-12.12h18.75v20.02h14.66v16.21h-14.66v41.59h13.53v16.21h-12.41Z"/><path class="cls-1" d="M325.16,93.19h-.7c-2.54,7.47-8.6,14.1-20.72,14.1-15.08,0-23.12-10.57-23.12-29.18V31.58h20.86v44.69c0,9.02,2.96,14.1,10.57,14.1,6.48,0,13.11-3.67,13.11-10.71V31.58h20.86v74.01h-20.86v-12.41Z"/><path class="cls-1" d="M365.48,105.59V31.58h20.86v16.07h.71c1.69-8.18,7.33-16.07,18.89-16.07h3.67v19.45h-5.22c-12.12,0-18.04,2.68-18.04,11.28v43.28h-20.86Z"/><path class="cls-1" d="M422.43,1.27h20.86v42.72h.71c2.12-8.18,10.29-14.1,19.88-14.1,18.75,0,28.48,13.53,28.48,38.63s-9.73,38.77-28.48,38.77c-9.59,0-17.76-6.06-19.88-14.1h-.71v12.41h-20.86V1.27ZM470.65,75v-12.83c0-9.3-5.78-15.37-13.67-15.37s-13.67,4.09-13.67,10.86v21.85c0,6.77,5.78,10.85,13.67,10.85s13.67-6.06,13.67-15.37Z"/><path class="cls-1" d="M562.84,105.59c-7.47,0-12.83-5.08-14.1-12.97h-.85c-2.26,9.59-10.43,14.66-21.71,14.66-14.8,0-22.98-8.74-22.98-21.57,0-15.65,12.12-23.12,31.72-23.12h11.7v-4.65c0-7.19-3.52-11.7-12.26-11.7s-12.69,4.23-15.93,8.74l-12.41-11c5.92-8.74,14.38-14.1,29.89-14.1,20.86,0,31.58,9.59,31.58,27.07v32.42h6.91v16.21h-11.56ZM546.63,83.18v-8.74h-10.15c-8.04,0-12.26,2.96-12.26,8.32v2.11c0,5.36,3.52,7.9,9.73,7.9,6.91,0,12.69-2.82,12.69-9.59Z"/><path class="cls-1" d="M613.45,105.59c-14.38,0-21.99-7.47-21.99-21.57v-36.23h-10.43v-16.21h5.22c5.64,0,7.33-2.82,7.33-7.9v-12.12h18.75v20.02h14.66v16.21h-14.66v41.59h13.53v16.21h-12.41Z"/><path class="cls-1" d="M639.81,13.39v-3.1c0-5.92,3.67-10.29,12.12-10.29s12.12,4.37,12.12,10.29v3.1c0,5.92-3.67,10.29-12.12,10.29s-12.12-4.37-12.12-10.29ZM641.5,31.58h20.86v74.01h-20.86V31.58Z"/><path class="cls-1" d="M677.17,68.51c0-23.83,12.97-38.63,34.68-38.63s34.68,14.8,34.68,38.63-12.97,38.77-34.68,38.77-34.68-14.94-34.68-38.77ZM724.82,76.13v-15.08c0-9.3-4.79-14.66-12.97-14.66s-12.97,5.36-12.97,14.66v15.08c0,9.3,4.79,14.66,12.97,14.66s12.97-5.36,12.97-14.66Z"/><path class="cls-1" d="M761.33,105.59V31.58h20.86v12.55h.85c2.68-7.75,8.88-14.24,20.58-14.24,15.08,0,23.12,10.71,23.12,29.32v46.38h-20.87v-44.69c0-9.45-2.68-14.1-10.29-14.1-6.77,0-13.39,3.52-13.39,10.86v47.93h-20.86Z"/><path class="cls-1" d="M0,183.76c0-32.32,13.75-49.92,37.4-49.92,15.26,0,25.99,7.84,31.77,20.49l-6.74,3.99c-4.26-10.45-12.93-17.05-25.03-17.05-17.88,0-28.6,13.48-28.6,37.13v10.86c0,23.51,10.73,36.44,28.6,36.44,12.79,0,21.59-7.01,25.71-18.01l6.74,3.99c-5.64,13.06-16.91,21.45-32.45,21.45-23.65,0-37.4-16.91-37.4-49.37Z"/><path class="cls-1" d="M137.37,231.48c-6.05,0-8.53-3.44-8.94-8.66v-2.48h-.69c-3.16,7.84-10.31,12.79-21.31,12.79-14.71,0-23.24-7.7-23.24-20.76s8.25-20.35,28.6-20.35h16.23v-8.25c0-11.55-6.05-17.46-18.01-17.46-9.35,0-15.4,4.12-19.25,11.41l-4.95-4.12c3.85-8.11,11.69-14.16,24.48-14.16,16.36,0,25.58,8.66,25.58,23.51v41.67h9.49v6.88h-7.98ZM128.02,210.99v-13.06h-16.5c-14.03,0-20.08,4.81-20.08,12.65v3.3c0,8.11,6.46,12.51,16.09,12.51,11.41,0,20.49-5.91,20.49-15.4Z"/><path class="cls-1" d="M173.8,231.48c-5.64,0-8.66-3.44-8.66-8.66v-54.87h-12.24v-6.88h7.98c3.85,0,4.95-1.38,4.95-5.36v-14.3h7.15v19.66h15.95v6.88h-15.95v56.65h14.85v6.88h-14.03Z"/><path class="cls-1" d="M256.17,231.48c-6.05,0-8.53-3.44-8.94-8.66v-2.48h-.69c-3.16,7.84-10.31,12.79-21.31,12.79-14.71,0-23.24-7.7-23.24-20.76s8.25-20.35,28.6-20.35h16.23v-8.25c0-11.55-6.05-17.46-18.01-17.46-9.35,0-15.4,4.12-19.25,11.41l-4.95-4.12c3.85-8.11,11.69-14.16,24.48-14.16,16.36,0,25.58,8.66,25.58,23.51v41.67h9.49v6.88h-7.98ZM246.82,210.99v-13.06h-16.5c-14.03,0-20.08,4.81-20.08,12.65v3.3c0,8.11,6.46,12.51,16.09,12.51,11.41,0,20.49-5.91,20.49-15.4Z"/><path class="cls-1" d="M288.89,231.48c-5.64,0-8.66-3.44-8.66-8.53v-93.23h7.84v94.88h10.86v6.88h-10.04Z"/><path class="cls-1" d="M310.89,196.27c0-23.1,12.1-36.85,30.67-36.85s30.67,13.75,30.67,36.85-12.1,36.85-30.67,36.85-30.67-13.75-30.67-36.85ZM363.83,200.67v-8.8c0-16.36-8.66-25.44-22.28-25.44s-22.28,8.94-22.28,25.44v8.8c0,16.36,8.66,25.44,22.28,25.44s22.28-8.94,22.28-25.44Z"/><path class="cls-1" d="M416.08,260.63c-21.45,0-30.39-6.6-30.39-17.6,0-7.98,4.54-12.65,12.1-14.85v-1.1c-4.4-1.79-6.6-4.95-6.6-9.63,0-6.88,5.23-10.31,11.96-12.1v-.55c-8.11-3.71-13.06-11.28-13.06-21.45,0-14.16,10.04-23.93,25.58-23.93,5.5,0,10.31,1.24,14.16,3.44v-3.44c0-4.26,1.92-7.15,6.46-7.15h12.1v6.88h-14.3v6.74c4.68,4.26,7.43,10.31,7.43,17.46,0,14.3-10.18,24.06-25.71,24.06-2.48,0-4.95-.41-7.29-.83-6.05,1.65-10.45,4.4-10.45,9.08,0,4.12,3.58,6.33,11.28,6.33h16.36c16.91,0,24.2,6.74,24.2,17.74,0,14.3-11.83,20.9-33.83,20.9ZM425.71,229.27h-22.83c-6.05,2.06-9.76,6.05-9.76,12.1,0,7.29,6.05,12.79,18.29,12.79h8.8c13.61,0,22.14-4.4,22.14-13.89,0-6.74-4.13-11-16.64-11ZM433.14,185.55v-4.4c0-9.63-6.6-15.4-17.33-15.4s-17.33,5.78-17.33,15.4v4.4c0,9.9,6.6,15.54,17.33,15.54s17.33-5.64,17.33-15.54Z"/><path class="cls-1" d="M508.35,220.34h-.55c-2.61,6.6-8.39,12.79-20.49,12.79-14.99,0-23.93-9.63-23.93-26.82v-45.24h7.84v43.73c0,14.44,6.46,21.31,18.15,21.31,9.76,0,18.98-5.09,18.98-15.68v-49.37h7.84v70.41h-7.84v-11.14Z"/><path class="cls-1" d="M536.12,196.27c0-23.1,11.96-36.85,30.67-36.85s29.7,14.03,29.7,34.65v3.71h-52.12v3.44c0,14.71,8.53,25.03,22.96,25.03,10.04,0,17.46-4.95,21.31-14.16l5.78,3.85c-4.4,10.31-14.16,17.19-27.5,17.19-18.84,0-30.8-13.75-30.8-36.85ZM544.37,191.05v.69h43.59v-1.1c0-14.85-8.53-24.62-21.18-24.62-13.61,0-22.41,10.18-22.41,25.03Z"/></svg>